<?xml version="1.0" encoding="utf-8" standalone="no"?>
<!DOCTYPE svg PUBLIC "-//W3C//DTD SVG 1.1//EN"
  "http://www.w3.org/Graphics/SVG/1.1/DTD/svg11.dtd">
<!-- Created with matplotlib (https://matplotlib.org/) -->
<svg height="158.951406pt" version="1.1" viewBox="0 0 390.620312 158.951406" width="390.620312pt" xmlns="http://www.w3.org/2000/svg" xmlns:xlink="http://www.w3.org/1999/xlink">
 <metadata>
  <rdf:RDF xmlns:cc="http://creativecommons.org/ns#" xmlns:dc="http://purl.org/dc/elements/1.1/" xmlns:rdf="http://www.w3.org/1999/02/22-rdf-syntax-ns#">
   <cc:Work>
    <dc:type rdf:resource="http://purl.org/dc/dcmitype/StillImage"/>
    <dc:date>2022-07-01T07:56:02.902389</dc:date>
    <dc:format>image/svg+xml</dc:format>
    <dc:creator>
     <cc:Agent>
      <dc:title>Matplotlib v3.3.4, https://matplotlib.org/</dc:title>
     </cc:Agent>
    </dc:creator>
   </cc:Work>
  </rdf:RDF>
 </metadata>
 <defs>
  <style type="text/css">*{stroke-linecap:butt;stroke-linejoin:round;}</style>
 </defs>
 <g id="figure_1">
  <g id="patch_1">
   <path d="M 0 158.951406 
L 390.620312 158.951406 
L 390.620312 0 
L 0 0 
z
" style="fill:#ffffff;"/>
  </g>
  <g id="axes_1">
   <g id="patch_2">
    <path d="M 48.620313 116.556094 
L 383.420313 116.556094 
L 383.420313 7.836094 
L 48.620313 7.836094 
z
" style="fill:#ffffff;"/>
   </g>
   <g id="matplotlib.axis_1">
    <g id="xtick_1">
     <g id="line2d_1">
      <defs>
       <path d="M 0 0 
L 0 3.5 
" id="mb9668ba232" style="stroke:#000000;stroke-width:0.8;"/>
      </defs>
      <g>
       <use style="stroke:#000000;stroke-width:0.8;" x="63.838494" xlink:href="#mb9668ba232" y="116.556094"/>
      </g>
     </g>
     <g id="text_1">
      <!-- 0.0 -->
      <g transform="translate(55.886932 131.154531)scale(0.1 -0.1)">
       <defs>
        <path d="M 31.78125 66.40625 
Q 24.171875 66.40625 20.328125 58.90625 
Q 16.5 51.421875 16.5 36.375 
Q 16.5 21.390625 20.328125 13.890625 
Q 24.171875 6.390625 31.78125 6.390625 
Q 39.453125 6.390625 43.28125 13.890625 
Q 47.125 21.390625 47.125 36.375 
Q 47.125 51.421875 43.28125 58.90625 
Q 39.453125 66.40625 31.78125 66.40625 
z
M 31.78125 74.21875 
Q 44.046875 74.21875 50.515625 64.515625 
Q 56.984375 54.828125 56.984375 36.375 
Q 56.984375 17.96875 50.515625 8.265625 
Q 44.046875 -1.421875 31.78125 -1.421875 
Q 19.53125 -1.421875 13.0625 8.265625 
Q 6.59375 17.96875 6.59375 36.375 
Q 6.59375 54.828125 13.0625 64.515625 
Q 19.53125 74.21875 31.78125 74.21875 
z
" id="DejaVuSans-48"/>
        <path d="M 10.6875 12.40625 
L 21 12.40625 
L 21 0 
L 10.6875 0 
z
" id="DejaVuSans-46"/>
       </defs>
       <use xlink:href="#DejaVuSans-48"/>
       <use x="63.623047" xlink:href="#DejaVuSans-46"/>
       <use x="95.410156" xlink:href="#DejaVuSans-48"/>
      </g>
     </g>
    </g>
    <g id="xtick_2">
     <g id="line2d_2">
      <g>
       <use style="stroke:#000000;stroke-width:0.8;" x="102.473127" xlink:href="#mb9668ba232" y="116.556094"/>
      </g>
     </g>
     <g id="text_2">
      <!-- 0.1 -->
      <g transform="translate(94.521565 131.154531)scale(0.1 -0.1)">
       <defs>
        <path d="M 12.40625 8.296875 
L 28.515625 8.296875 
L 28.515625 63.921875 
L 10.984375 60.40625 
L 10.984375 69.390625 
L 28.421875 72.90625 
L 38.28125 72.90625 
L 38.28125 8.296875 
L 54.390625 8.296875 
L 54.390625 0 
L 12.40625 0 
z
" id="DejaVuSans-49"/>
       </defs>
       <use xlink:href="#DejaVuSans-48"/>
       <use x="63.623047" xlink:href="#DejaVuSans-46"/>
       <use x="95.410156" xlink:href="#DejaVuSans-49"/>
      </g>
     </g>
    </g>
    <g id="xtick_3">
     <g id="line2d_3">
      <g>
       <use style="stroke:#000000;stroke-width:0.8;" x="141.10776" xlink:href="#mb9668ba232" y="116.556094"/>
      </g>
     </g>
     <g id="text_3">
      <!-- 0.2 -->
      <g transform="translate(133.156197 131.154531)scale(0.1 -0.1)">
       <defs>
        <path d="M 19.1875 8.296875 
L 53.609375 8.296875 
L 53.609375 0 
L 7.328125 0 
L 7.328125 8.296875 
Q 12.9375 14.109375 22.625 23.890625 
Q 32.328125 33.6875 34.8125 36.53125 
Q 39.546875 41.84375 41.421875 45.53125 
Q 43.3125 49.21875 43.3125 52.78125 
Q 43.3125 58.59375 39.234375 62.25 
Q 35.15625 65.921875 28.609375 65.921875 
Q 23.96875 65.921875 18.8125 64.3125 
Q 13.671875 62.703125 7.8125 59.421875 
L 7.8125 69.390625 
Q 13.765625 71.78125 18.9375 73 
Q 24.125 74.21875 28.421875 74.21875 
Q 39.75 74.21875 46.484375 68.546875 
Q 53.21875 62.890625 53.21875 53.421875 
Q 53.21875 48.921875 51.53125 44.890625 
Q 49.859375 40.875 45.40625 35.40625 
Q 44.1875 33.984375 37.640625 27.21875 
Q 31.109375 20.453125 19.1875 8.296875 
z
" id="DejaVuSans-50"/>
       </defs>
       <use xlink:href="#DejaVuSans-48"/>
       <use x="63.623047" xlink:href="#DejaVuSans-46"/>
       <use x="95.410156" xlink:href="#DejaVuSans-50"/>
      </g>
     </g>
    </g>
    <g id="xtick_4">
     <g id="line2d_4">
      <g>
       <use style="stroke:#000000;stroke-width:0.8;" x="179.742392" xlink:href="#mb9668ba232" y="116.556094"/>
      </g>
     </g>
     <g id="text_4">
      <!-- 0.3 -->
      <g transform="translate(171.79083 131.154531)scale(0.1 -0.1)">
       <defs>
        <path d="M 40.578125 39.3125 
Q 47.65625 37.796875 51.625 33 
Q 55.609375 28.21875 55.609375 21.1875 
Q 55.609375 10.40625 48.1875 4.484375 
Q 40.765625 -1.421875 27.09375 -1.421875 
Q 22.515625 -1.421875 17.65625 -0.515625 
Q 12.796875 0.390625 7.625 2.203125 
L 7.625 11.71875 
Q 11.71875 9.328125 16.59375 8.109375 
Q 21.484375 6.890625 26.8125 6.890625 
Q 36.078125 6.890625 40.9375 10.546875 
Q 45.796875 14.203125 45.796875 21.1875 
Q 45.796875 27.640625 41.28125 31.265625 
Q 36.765625 34.90625 28.71875 34.90625 
L 20.21875 34.90625 
L 20.21875 43.015625 
L 29.109375 43.015625 
Q 36.375 43.015625 40.234375 45.921875 
Q 44.09375 48.828125 44.09375 54.296875 
Q 44.09375 59.90625 40.109375 62.90625 
Q 36.140625 65.921875 28.71875 65.921875 
Q 24.65625 65.921875 20.015625 65.03125 
Q 15.375 64.15625 9.8125 62.3125 
L 9.8125 71.09375 
Q 15.4375 72.65625 20.34375 73.4375 
Q 25.25 74.21875 29.59375 74.21875 
Q 40.828125 74.21875 47.359375 69.109375 
Q 53.90625 64.015625 53.90625 55.328125 
Q 53.90625 49.265625 50.4375 45.09375 
Q 46.96875 40.921875 40.578125 39.3125 
z
" id="DejaVuSans-51"/>
       </defs>
       <use xlink:href="#DejaVuSans-48"/>
       <use x="63.623047" xlink:href="#DejaVuSans-46"/>
       <use x="95.410156" xlink:href="#DejaVuSans-51"/>
      </g>
     </g>
    </g>
    <g id="xtick_5">
     <g id="line2d_5">
      <g>
       <use style="stroke:#000000;stroke-width:0.8;" x="218.377025" xlink:href="#mb9668ba232" y="116.556094"/>
      </g>
     </g>
     <g id="text_5">
      <!-- 0.4 -->
      <g transform="translate(210.425463 131.154531)scale(0.1 -0.1)">
       <defs>
        <path d="M 37.796875 64.3125 
L 12.890625 25.390625 
L 37.796875 25.390625 
z
M 35.203125 72.90625 
L 47.609375 72.90625 
L 47.609375 25.390625 
L 58.015625 25.390625 
L 58.015625 17.1875 
L 47.609375 17.1875 
L 47.609375 0 
L 37.796875 0 
L 37.796875 17.1875 
L 4.890625 17.1875 
L 4.890625 26.703125 
z
" id="DejaVuSans-52"/>
       </defs>
       <use xlink:href="#DejaVuSans-48"/>
       <use x="63.623047" xlink:href="#DejaVuSans-46"/>
       <use x="95.410156" xlink:href="#DejaVuSans-52"/>
      </g>
     </g>
    </g>
    <g id="xtick_6">
     <g id="line2d_6">
      <g>
       <use style="stroke:#000000;stroke-width:0.8;" x="257.011658" xlink:href="#mb9668ba232" y="116.556094"/>
      </g>
     </g>
     <g id="text_6">
      <!-- 0.5 -->
      <g transform="translate(249.060095 131.154531)scale(0.1 -0.1)">
       <defs>
        <path d="M 10.796875 72.90625 
L 49.515625 72.90625 
L 49.515625 64.59375 
L 19.828125 64.59375 
L 19.828125 46.734375 
Q 21.96875 47.46875 24.109375 47.828125 
Q 26.265625 48.1875 28.421875 48.1875 
Q 40.625 48.1875 47.75 41.5 
Q 54.890625 34.8125 54.890625 23.390625 
Q 54.890625 11.625 47.5625 5.09375 
Q 40.234375 -1.421875 26.90625 -1.421875 
Q 22.3125 -1.421875 17.546875 -0.640625 
Q 12.796875 0.140625 7.71875 1.703125 
L 7.71875 11.625 
Q 12.109375 9.234375 16.796875 8.0625 
Q 21.484375 6.890625 26.703125 6.890625 
Q 35.15625 6.890625 40.078125 11.328125 
Q 45.015625 15.765625 45.015625 23.390625 
Q 45.015625 31 40.078125 35.4375 
Q 35.15625 39.890625 26.703125 39.890625 
Q 22.75 39.890625 18.8125 39.015625 
Q 14.890625 38.140625 10.796875 36.28125 
z
" id="DejaVuSans-53"/>
       </defs>
       <use xlink:href="#DejaVuSans-48"/>
       <use x="63.623047" xlink:href="#DejaVuSans-46"/>
       <use x="95.410156" xlink:href="#DejaVuSans-53"/>
      </g>
     </g>
    </g>
    <g id="xtick_7">
     <g id="line2d_7">
      <g>
       <use style="stroke:#000000;stroke-width:0.8;" x="295.64629" xlink:href="#mb9668ba232" y="116.556094"/>
      </g>
     </g>
     <g id="text_7">
      <!-- 0.6 -->
      <g transform="translate(287.694728 131.154531)scale(0.1 -0.1)">
       <defs>
        <path d="M 33.015625 40.375 
Q 26.375 40.375 22.484375 35.828125 
Q 18.609375 31.296875 18.609375 23.390625 
Q 18.609375 15.53125 22.484375 10.953125 
Q 26.375 6.390625 33.015625 6.390625 
Q 39.65625 6.390625 43.53125 10.953125 
Q 47.40625 15.53125 47.40625 23.390625 
Q 47.40625 31.296875 43.53125 35.828125 
Q 39.65625 40.375 33.015625 40.375 
z
M 52.59375 71.296875 
L 52.59375 62.3125 
Q 48.875 64.0625 45.09375 64.984375 
Q 41.3125 65.921875 37.59375 65.921875 
Q 27.828125 65.921875 22.671875 59.328125 
Q 17.53125 52.734375 16.796875 39.40625 
Q 19.671875 43.65625 24.015625 45.921875 
Q 28.375 48.1875 33.59375 48.1875 
Q 44.578125 48.1875 50.953125 41.515625 
Q 57.328125 34.859375 57.328125 23.390625 
Q 57.328125 12.15625 50.6875 5.359375 
Q 44.046875 -1.421875 33.015625 -1.421875 
Q 20.359375 -1.421875 13.671875 8.265625 
Q 6.984375 17.96875 6.984375 36.375 
Q 6.984375 53.65625 15.1875 63.9375 
Q 23.390625 74.21875 37.203125 74.21875 
Q 40.921875 74.21875 44.703125 73.484375 
Q 48.484375 72.75 52.59375 71.296875 
z
" id="DejaVuSans-54"/>
       </defs>
       <use xlink:href="#DejaVuSans-48"/>
       <use x="63.623047" xlink:href="#DejaVuSans-46"/>
       <use x="95.410156" xlink:href="#DejaVuSans-54"/>
      </g>
     </g>
    </g>
    <g id="xtick_8">
     <g id="line2d_8">
      <g>
       <use style="stroke:#000000;stroke-width:0.8;" x="334.280923" xlink:href="#mb9668ba232" y="116.556094"/>
      </g>
     </g>
     <g id="text_8">
      <!-- 0.7 -->
      <g transform="translate(326.329361 131.154531)scale(0.1 -0.1)">
       <defs>
        <path d="M 8.203125 72.90625 
L 55.078125 72.90625 
L 55.078125 68.703125 
L 28.609375 0 
L 18.3125 0 
L 43.21875 64.59375 
L 8.203125 64.59375 
z
" id="DejaVuSans-55"/>
       </defs>
       <use xlink:href="#DejaVuSans-48"/>
       <use x="63.623047" xlink:href="#DejaVuSans-46"/>
       <use x="95.410156" xlink:href="#DejaVuSans-55"/>
      </g>
     </g>
    </g>
    <g id="xtick_9">
     <g id="line2d_9">
      <g>
       <use style="stroke:#000000;stroke-width:0.8;" x="372.915556" xlink:href="#mb9668ba232" y="116.556094"/>
      </g>
     </g>
     <g id="text_9">
      <!-- 0.8 -->
      <g transform="translate(364.963993 131.154531)scale(0.1 -0.1)">
       <defs>
        <path d="M 31.78125 34.625 
Q 24.75 34.625 20.71875 30.859375 
Q 16.703125 27.09375 16.703125 20.515625 
Q 16.703125 13.921875 20.71875 10.15625 
Q 24.75 6.390625 31.78125 6.390625 
Q 38.8125 6.390625 42.859375 10.171875 
Q 46.921875 13.96875 46.921875 20.515625 
Q 46.921875 27.09375 42.890625 30.859375 
Q 38.875 34.625 31.78125 34.625 
z
M 21.921875 38.8125 
Q 15.578125 40.375 12.03125 44.71875 
Q 8.5 49.078125 8.5 55.328125 
Q 8.5 64.0625 14.71875 69.140625 
Q 20.953125 74.21875 31.78125 74.21875 
Q 42.671875 74.21875 48.875 69.140625 
Q 55.078125 64.0625 55.078125 55.328125 
Q 55.078125 49.078125 51.53125 44.71875 
Q 48 40.375 41.703125 38.8125 
Q 48.828125 37.15625 52.796875 32.3125 
Q 56.78125 27.484375 56.78125 20.515625 
Q 56.78125 9.90625 50.3125 4.234375 
Q 43.84375 -1.421875 31.78125 -1.421875 
Q 19.734375 -1.421875 13.25 4.234375 
Q 6.78125 9.90625 6.78125 20.515625 
Q 6.78125 27.484375 10.78125 32.3125 
Q 14.796875 37.15625 21.921875 38.8125 
z
M 18.3125 54.390625 
Q 18.3125 48.734375 21.84375 45.5625 
Q 25.390625 42.390625 31.78125 42.390625 
Q 38.140625 42.390625 41.71875 45.5625 
Q 45.3125 48.734375 45.3125 54.390625 
Q 45.3125 60.0625 41.71875 63.234375 
Q 38.140625 66.40625 31.78125 66.40625 
Q 25.390625 66.40625 21.84375 63.234375 
Q 18.3125 60.0625 18.3125 54.390625 
z
" id="DejaVuSans-56"/>
       </defs>
       <use xlink:href="#DejaVuSans-48"/>
       <use x="63.623047" xlink:href="#DejaVuSans-46"/>
       <use x="95.410156" xlink:href="#DejaVuSans-56"/>
      </g>
     </g>
    </g>
    <g id="text_10">
     <!-- Distance [nm] -->
     <g transform="translate(162.932031 148.631875)scale(0.15 -0.15)">
      <defs>
       <path d="M 19.671875 64.796875 
L 19.671875 8.109375 
L 31.59375 8.109375 
Q 46.6875 8.109375 53.6875 14.9375 
Q 60.6875 21.78125 60.6875 36.53125 
Q 60.6875 51.171875 53.6875 57.984375 
Q 46.6875 64.796875 31.59375 64.796875 
z
M 9.8125 72.90625 
L 30.078125 72.90625 
Q 51.265625 72.90625 61.171875 64.09375 
Q 71.09375 55.28125 71.09375 36.53125 
Q 71.09375 17.671875 61.125 8.828125 
Q 51.171875 0 30.078125 0 
L 9.8125 0 
z
" id="DejaVuSans-68"/>
       <path d="M 9.421875 54.6875 
L 18.40625 54.6875 
L 18.40625 0 
L 9.421875 0 
z
M 9.421875 75.984375 
L 18.40625 75.984375 
L 18.40625 64.59375 
L 9.421875 64.59375 
z
" id="DejaVuSans-105"/>
       <path d="M 44.28125 53.078125 
L 44.28125 44.578125 
Q 40.484375 46.53125 36.375 47.5 
Q 32.28125 48.484375 27.875 48.484375 
Q 21.1875 48.484375 17.84375 46.4375 
Q 14.5 44.390625 14.5 40.28125 
Q 14.5 37.15625 16.890625 35.375 
Q 19.28125 33.59375 26.515625 31.984375 
L 29.59375 31.296875 
Q 39.15625 29.25 43.1875 25.515625 
Q 47.21875 21.78125 47.21875 15.09375 
Q 47.21875 7.46875 41.1875 3.015625 
Q 35.15625 -1.421875 24.609375 -1.421875 
Q 20.21875 -1.421875 15.453125 -0.5625 
Q 10.6875 0.296875 5.421875 2 
L 5.421875 11.28125 
Q 10.40625 8.6875 15.234375 7.390625 
Q 20.0625 6.109375 24.8125 6.109375 
Q 31.15625 6.109375 34.5625 8.28125 
Q 37.984375 10.453125 37.984375 14.40625 
Q 37.984375 18.0625 35.515625 20.015625 
Q 33.0625 21.96875 24.703125 23.78125 
L 21.578125 24.515625 
Q 13.234375 26.265625 9.515625 29.90625 
Q 5.8125 33.546875 5.8125 39.890625 
Q 5.8125 47.609375 11.28125 51.796875 
Q 16.75 56 26.8125 56 
Q 31.78125 56 36.171875 55.265625 
Q 40.578125 54.546875 44.28125 53.078125 
z
" id="DejaVuSans-115"/>
       <path d="M 18.3125 70.21875 
L 18.3125 54.6875 
L 36.8125 54.6875 
L 36.8125 47.703125 
L 18.3125 47.703125 
L 18.3125 18.015625 
Q 18.3125 11.328125 20.140625 9.421875 
Q 21.96875 7.515625 27.59375 7.515625 
L 36.8125 7.515625 
L 36.8125 0 
L 27.59375 0 
Q 17.1875 0 13.234375 3.875 
Q 9.28125 7.765625 9.28125 18.015625 
L 9.28125 47.703125 
L 2.6875 47.703125 
L 2.6875 54.6875 
L 9.28125 54.6875 
L 9.28125 70.21875 
z
" id="DejaVuSans-116"/>
       <path d="M 34.28125 27.484375 
Q 23.390625 27.484375 19.1875 25 
Q 14.984375 22.515625 14.984375 16.5 
Q 14.984375 11.71875 18.140625 8.90625 
Q 21.296875 6.109375 26.703125 6.109375 
Q 34.1875 6.109375 38.703125 11.40625 
Q 43.21875 16.703125 43.21875 25.484375 
L 43.21875 27.484375 
z
M 52.203125 31.203125 
L 52.203125 0 
L 43.21875 0 
L 43.21875 8.296875 
Q 40.140625 3.328125 35.546875 0.953125 
Q 30.953125 -1.421875 24.3125 -1.421875 
Q 15.921875 -1.421875 10.953125 3.296875 
Q 6 8.015625 6 15.921875 
Q 6 25.140625 12.171875 29.828125 
Q 18.359375 34.515625 30.609375 34.515625 
L 43.21875 34.515625 
L 43.21875 35.40625 
Q 43.21875 41.609375 39.140625 45 
Q 35.0625 48.390625 27.6875 48.390625 
Q 23 48.390625 18.546875 47.265625 
Q 14.109375 46.140625 10.015625 43.890625 
L 10.015625 52.203125 
Q 14.9375 54.109375 19.578125 55.046875 
Q 24.21875 56 28.609375 56 
Q 40.484375 56 46.34375 49.84375 
Q 52.203125 43.703125 52.203125 31.203125 
z
" id="DejaVuSans-97"/>
       <path d="M 54.890625 33.015625 
L 54.890625 0 
L 45.90625 0 
L 45.90625 32.71875 
Q 45.90625 40.484375 42.875 44.328125 
Q 39.84375 48.1875 33.796875 48.1875 
Q 26.515625 48.1875 22.3125 43.546875 
Q 18.109375 38.921875 18.109375 30.90625 
L 18.109375 0 
L 9.078125 0 
L 9.078125 54.6875 
L 18.109375 54.6875 
L 18.109375 46.1875 
Q 21.34375 51.125 25.703125 53.5625 
Q 30.078125 56 35.796875 56 
Q 45.21875 56 50.046875 50.171875 
Q 54.890625 44.34375 54.890625 33.015625 
z
" id="DejaVuSans-110"/>
       <path d="M 48.78125 52.59375 
L 48.78125 44.1875 
Q 44.96875 46.296875 41.140625 47.34375 
Q 37.3125 48.390625 33.40625 48.390625 
Q 24.65625 48.390625 19.8125 42.84375 
Q 14.984375 37.3125 14.984375 27.296875 
Q 14.984375 17.28125 19.8125 11.734375 
Q 24.65625 6.203125 33.40625 6.203125 
Q 37.3125 6.203125 41.140625 7.25 
Q 44.96875 8.296875 48.78125 10.40625 
L 48.78125 2.09375 
Q 45.015625 0.34375 40.984375 -0.53125 
Q 36.96875 -1.421875 32.421875 -1.421875 
Q 20.0625 -1.421875 12.78125 6.34375 
Q 5.515625 14.109375 5.515625 27.296875 
Q 5.515625 40.671875 12.859375 48.328125 
Q 20.21875 56 33.015625 56 
Q 37.15625 56 41.109375 55.140625 
Q 45.0625 54.296875 48.78125 52.59375 
z
" id="DejaVuSans-99"/>
       <path d="M 56.203125 29.59375 
L 56.203125 25.203125 
L 14.890625 25.203125 
Q 15.484375 15.921875 20.484375 11.0625 
Q 25.484375 6.203125 34.421875 6.203125 
Q 39.59375 6.203125 44.453125 7.46875 
Q 49.3125 8.734375 54.109375 11.28125 
L 54.109375 2.78125 
Q 49.265625 0.734375 44.1875 -0.34375 
Q 39.109375 -1.421875 33.890625 -1.421875 
Q 20.796875 -1.421875 13.15625 6.1875 
Q 5.515625 13.8125 5.515625 26.8125 
Q 5.515625 40.234375 12.765625 48.109375 
Q 20.015625 56 32.328125 56 
Q 43.359375 56 49.78125 48.890625 
Q 56.203125 41.796875 56.203125 29.59375 
z
M 47.21875 32.234375 
Q 47.125 39.59375 43.09375 43.984375 
Q 39.0625 48.390625 32.421875 48.390625 
Q 24.90625 48.390625 20.390625 44.140625 
Q 15.875 39.890625 15.1875 32.171875 
z
" id="DejaVuSans-101"/>
       <path id="DejaVuSans-32"/>
       <path d="M 8.59375 75.984375 
L 29.296875 75.984375 
L 29.296875 69 
L 17.578125 69 
L 17.578125 -6.203125 
L 29.296875 -6.203125 
L 29.296875 -13.1875 
L 8.59375 -13.1875 
z
" id="DejaVuSans-91"/>
       <path d="M 52 44.1875 
Q 55.375 50.25 60.0625 53.125 
Q 64.75 56 71.09375 56 
Q 79.640625 56 84.28125 50.015625 
Q 88.921875 44.046875 88.921875 33.015625 
L 88.921875 0 
L 79.890625 0 
L 79.890625 32.71875 
Q 79.890625 40.578125 77.09375 44.375 
Q 74.3125 48.1875 68.609375 48.1875 
Q 61.625 48.1875 57.5625 43.546875 
Q 53.515625 38.921875 53.515625 30.90625 
L 53.515625 0 
L 44.484375 0 
L 44.484375 32.71875 
Q 44.484375 40.625 41.703125 44.40625 
Q 38.921875 48.1875 33.109375 48.1875 
Q 26.21875 48.1875 22.15625 43.53125 
Q 18.109375 38.875 18.109375 30.90625 
L 18.109375 0 
L 9.078125 0 
L 9.078125 54.6875 
L 18.109375 54.6875 
L 18.109375 46.1875 
Q 21.1875 51.21875 25.484375 53.609375 
Q 29.78125 56 35.6875 56 
Q 41.65625 56 45.828125 52.96875 
Q 50 49.953125 52 44.1875 
z
" id="DejaVuSans-109"/>
       <path d="M 30.421875 75.984375 
L 30.421875 -13.1875 
L 9.71875 -13.1875 
L 9.71875 -6.203125 
L 21.390625 -6.203125 
L 21.390625 69 
L 9.71875 69 
L 9.71875 75.984375 
z
" id="DejaVuSans-93"/>
      </defs>
      <use xlink:href="#DejaVuSans-68"/>
      <use x="77.001953" xlink:href="#DejaVuSans-105"/>
      <use x="104.785156" xlink:href="#DejaVuSans-115"/>
      <use x="156.884766" xlink:href="#DejaVuSans-116"/>
      <use x="196.09375" xlink:href="#DejaVuSans-97"/>
      <use x="257.373047" xlink:href="#DejaVuSans-110"/>
      <use x="320.751953" xlink:href="#DejaVuSans-99"/>
      <use x="375.732422" xlink:href="#DejaVuSans-101"/>
      <use x="437.255859" xlink:href="#DejaVuSans-32"/>
      <use x="469.042969" xlink:href="#DejaVuSans-91"/>
      <use x="508.056641" xlink:href="#DejaVuSans-110"/>
      <use x="571.435547" xlink:href="#DejaVuSans-109"/>
      <use x="668.847656" xlink:href="#DejaVuSans-93"/>
     </g>
    </g>
   </g>
   <g id="matplotlib.axis_2">
    <g id="ytick_1">
     <g id="line2d_10">
      <defs>
       <path d="M 0 0 
L -3.5 0 
" id="m7be4e4ca1a" style="stroke:#000000;stroke-width:0.8;"/>
      </defs>
      <g>
       <use style="stroke:#000000;stroke-width:0.8;" x="48.620313" xlink:href="#m7be4e4ca1a" y="109.5266"/>
      </g>
     </g>
     <g id="text_11">
      <!-- 0.0 -->
      <g transform="translate(25.717188 113.325819)scale(0.1 -0.1)">
       <use xlink:href="#DejaVuSans-48"/>
       <use x="63.623047" xlink:href="#DejaVuSans-46"/>
       <use x="95.410156" xlink:href="#DejaVuSans-48"/>
      </g>
     </g>
    </g>
    <g id="ytick_2">
     <g id="line2d_11">
      <g>
       <use style="stroke:#000000;stroke-width:0.8;" x="48.620313" xlink:href="#m7be4e4ca1a" y="72.344231"/>
      </g>
     </g>
     <g id="text_12">
      <!-- 0.2 -->
      <g transform="translate(25.717188 76.14345)scale(0.1 -0.1)">
       <use xlink:href="#DejaVuSans-48"/>
       <use x="63.623047" xlink:href="#DejaVuSans-46"/>
       <use x="95.410156" xlink:href="#DejaVuSans-50"/>
      </g>
     </g>
    </g>
    <g id="ytick_3">
     <g id="line2d_12">
      <g>
       <use style="stroke:#000000;stroke-width:0.8;" x="48.620313" xlink:href="#m7be4e4ca1a" y="35.161862"/>
      </g>
     </g>
     <g id="text_13">
      <!-- 0.4 -->
      <g transform="translate(25.717188 38.961081)scale(0.1 -0.1)">
       <use xlink:href="#DejaVuSans-48"/>
       <use x="63.623047" xlink:href="#DejaVuSans-46"/>
       <use x="95.410156" xlink:href="#DejaVuSans-52"/>
      </g>
     </g>
    </g>
    <g id="text_14">
     <!-- Intensity [a.u.] -->
     <g transform="translate(18.597656 117.192187)rotate(-90)scale(0.15 -0.15)">
      <defs>
       <path d="M 9.8125 72.90625 
L 19.671875 72.90625 
L 19.671875 0 
L 9.8125 0 
z
" id="DejaVuSans-73"/>
       <path d="M 32.171875 -5.078125 
Q 28.375 -14.84375 24.75 -17.8125 
Q 21.140625 -20.796875 15.09375 -20.796875 
L 7.90625 -20.796875 
L 7.90625 -13.28125 
L 13.1875 -13.28125 
Q 16.890625 -13.28125 18.9375 -11.515625 
Q 21 -9.765625 23.484375 -3.21875 
L 25.09375 0.875 
L 2.984375 54.6875 
L 12.5 54.6875 
L 29.59375 11.921875 
L 46.6875 54.6875 
L 56.203125 54.6875 
z
" id="DejaVuSans-121"/>
       <path d="M 8.5 21.578125 
L 8.5 54.6875 
L 17.484375 54.6875 
L 17.484375 21.921875 
Q 17.484375 14.15625 20.5 10.265625 
Q 23.53125 6.390625 29.59375 6.390625 
Q 36.859375 6.390625 41.078125 11.03125 
Q 45.3125 15.671875 45.3125 23.6875 
L 45.3125 54.6875 
L 54.296875 54.6875 
L 54.296875 0 
L 45.3125 0 
L 45.3125 8.40625 
Q 42.046875 3.421875 37.71875 1 
Q 33.40625 -1.421875 27.6875 -1.421875 
Q 18.265625 -1.421875 13.375 4.4375 
Q 8.5 10.296875 8.5 21.578125 
z
M 31.109375 56 
z
" id="DejaVuSans-117"/>
      </defs>
      <use xlink:href="#DejaVuSans-73"/>
      <use x="29.492188" xlink:href="#DejaVuSans-110"/>
      <use x="92.871094" xlink:href="#DejaVuSans-116"/>
      <use x="132.080078" xlink:href="#DejaVuSans-101"/>
      <use x="193.603516" xlink:href="#DejaVuSans-110"/>
      <use x="256.982422" xlink:href="#DejaVuSans-115"/>
      <use x="309.082031" xlink:href="#DejaVuSans-105"/>
      <use x="336.865234" xlink:href="#DejaVuSans-116"/>
      <use x="376.074219" xlink:href="#DejaVuSans-121"/>
      <use x="435.253906" xlink:href="#DejaVuSans-32"/>
      <use x="467.041016" xlink:href="#DejaVuSans-91"/>
      <use x="506.054688" xlink:href="#DejaVuSans-97"/>
      <use x="567.333984" xlink:href="#DejaVuSans-46"/>
      <use x="599.121094" xlink:href="#DejaVuSans-117"/>
      <use x="662.5" xlink:href="#DejaVuSans-46"/>
      <use x="694.287109" xlink:href="#DejaVuSans-93"/>
     </g>
    </g>
   </g>
   <g id="line2d_13">
    <path clip-path="url(#pb1c28f9b0c)" d="M 63.838494 109.380001 
L 66.851996 102.355431 
L 69.865497 103.105313 
L 72.878998 106.925723 
L 75.8925 103.851251 
L 78.906001 103.402881 
L 81.919502 104.423577 
L 84.933004 105.019845 
L 87.946505 101.602272 
L 90.960006 104.564624 
L 93.973508 98.107731 
L 96.987009 105.254725 
L 100.000511 102.391443 
L 103.014012 106.484416 
L 106.027513 106.945462 
L 109.041015 93.535823 
L 112.054516 96.797952 
L 115.068017 93.387039 
L 118.081519 73.928619 
L 121.09502 76.617206 
L 124.108521 59.637632 
L 127.122023 71.308293 
L 130.135524 70.230243 
L 133.149025 46.005301 
L 136.162527 46.025785 
L 139.176028 43.466092 
L 142.189529 37.687762 
L 145.203031 37.077713 
L 148.216532 39.692497 
L 151.230033 42.393131 
L 154.243535 50.152737 
L 157.257036 59.201348 
L 160.270538 55.998519 
L 163.284039 67.664636 
L 166.29754 63.379205 
L 169.311042 81.190579 
L 172.324543 75.856777 
L 175.338044 85.610342 
L 178.351546 79.962094 
L 181.365047 86.770242 
L 184.378548 99.43997 
L 187.39205 99.560899 
L 190.405551 103.214628 
L 193.419052 102.031836 
L 196.432554 98.669863 
L 199.446055 97.760686 
L 202.459556 102.525421 
L 205.473058 105.709384 
L 208.486559 104.910847 
L 211.50006 102.387965 
L 214.513562 102.851584 
L 217.527063 105.273672 
L 220.540565 106.145722 
L 223.554066 101.151587 
L 226.567567 104.677834 
L 229.581069 104.313336 
L 232.59457 103.598578 
L 235.608071 102.068161 
L 238.621573 102.426747 
L 241.635074 105.501266 
L 244.648575 104.709041 
L 247.662077 100.709641 
L 250.675578 103.74465 
L 253.689079 108.523035 
L 256.702581 107.917544 
L 259.716082 103.098136 
L 262.729583 100.276819 
L 265.743085 109.496901 
L 268.756586 104.728587 
L 271.770087 106.730424 
L 274.783589 108.117808 
L 277.79709 104.847417 
L 280.810592 105.936708 
L 283.824093 105.592697 
L 286.837594 100.259843 
L 289.851096 99.893136 
L 292.864597 100.820262 
L 295.878098 103.989571 
L 298.8916 102.875739 
L 301.905101 103.515677 
L 304.918602 96.139765 
L 307.932104 91.237191 
L 310.945605 81.333482 
L 313.959106 83.901857 
L 316.972608 60.649601 
L 319.986109 37.097039 
L 322.99961 40.085525 
L 326.013112 41.459872 
L 329.026613 32.241846 
L 332.040114 35.981366 
L 335.053616 33.416155 
L 338.067117 19.496704 
L 341.080619 25.09671 
L 344.09412 24.803163 
L 347.107621 38.523756 
L 350.121123 46.053122 
L 353.134624 52.348861 
L 356.148125 76.937193 
L 359.161627 85.335758 
L 362.175128 88.629581 
L 365.188629 87.625074 
L 368.202131 90.245576 
" style="fill:none;stroke:#8c564b;stroke-linecap:square;stroke-width:1.5;"/>
   </g>
   <g id="line2d_14">
    <path clip-path="url(#pb1c28f9b0c)" d="M 63.838494 104.206329 
L 66.851996 110.184015 
L 69.865497 101.475773 
L 72.878998 107.565177 
L 75.8925 107.788487 
L 78.906001 102.734886 
L 81.919502 107.222581 
L 84.933004 102.663639 
L 87.946505 106.805365 
L 90.960006 103.184118 
L 93.973508 102.298159 
L 96.987009 99.60395 
L 100.000511 102.51529 
L 103.014012 99.482521 
L 106.027513 91.327521 
L 109.041015 77.3699 
L 112.054516 93.65836 
L 115.068017 88.264676 
L 118.081519 78.126633 
L 121.09502 51.459245 
L 124.108521 57.691301 
L 127.122023 47.162323 
L 130.135524 44.252902 
L 133.149025 55.225521 
L 136.162527 27.885019 
L 139.176028 29.041504 
L 142.189529 20.846279 
L 145.203031 24.894633 
L 148.216532 28.485504 
L 151.230033 24.598737 
L 154.243535 44.322774 
L 157.257036 56.905992 
L 160.270538 60.375369 
L 163.284039 57.87096 
L 166.29754 70.894011 
L 169.311042 87.745034 
L 172.324543 93.003632 
L 175.338044 94.007181 
L 178.351546 93.648226 
L 181.365047 92.98669 
L 184.378548 97.569227 
L 187.39205 99.697041 
L 190.405551 100.310367 
L 193.419052 97.944186 
L 196.432554 93.622407 
L 199.446055 93.794226 
L 202.459556 96.683449 
L 205.473058 98.657306 
L 208.486559 95.217311 
L 211.50006 98.178528 
L 214.513562 97.966468 
L 217.527063 93.372 
L 220.540565 91.543626 
L 223.554066 95.252764 
L 226.567567 95.797248 
L 229.581069 93.999878 
L 232.59457 94.491236 
L 235.608071 96.477997 
L 238.621573 94.565175 
L 241.635074 97.628082 
L 244.648575 98.654447 
L 247.662077 99.342034 
L 250.675578 107.405262 
L 253.689079 106.68711 
L 256.702581 100.780576 
L 259.716082 101.589998 
L 262.729583 107.036783 
L 265.743085 104.847894 
L 268.756586 105.3286 
L 271.770087 103.769107 
L 274.783589 102.141881 
L 277.79709 102.567484 
L 280.810592 106.490489 
L 283.824093 106.601951 
L 286.837594 105.488678 
L 289.851096 103.294576 
L 292.864597 101.976761 
L 295.878098 108.053971 
L 298.8916 105.154097 
L 301.905101 100.96664 
L 304.918602 105.597217 
L 307.932104 102.684064 
L 310.945605 96.702308 
L 313.959106 92.782168 
L 316.972608 84.973383 
L 319.986109 82.264636 
L 322.99961 97.324903 
L 326.013112 94.714781 
L 329.026613 79.94033 
L 332.040114 72.195042 
L 335.053616 73.416834 
L 338.067117 36.343932 
L 341.080619 35.362896 
L 344.09412 30.346893 
L 347.107621 20.757319 
L 350.121123 23.857664 
L 353.134624 26.536469 
L 356.148125 19.420587 
L 359.161627 24.627941 
L 362.175128 28.640874 
L 365.188629 36.40192 
L 368.202131 37.352311 
" style="fill:none;stroke:#9467bd;stroke-linecap:square;stroke-width:1.5;"/>
   </g>
   <g id="line2d_15">
    <path clip-path="url(#pb1c28f9b0c)" d="M 63.838494 102.469269 
L 66.851996 106.555302 
L 69.865497 105.719643 
L 72.878998 103.793043 
L 75.8925 106.154078 
L 78.906001 107.303309 
L 81.919502 106.295223 
L 84.933004 104.373852 
L 87.946505 108.37701 
L 90.960006 106.690666 
L 93.973508 102.873191 
L 96.987009 100.72293 
L 100.000511 102.064639 
L 103.014012 101.015657 
L 106.027513 96.206196 
L 109.041015 93.787881 
L 112.054516 77.039813 
L 115.068017 55.585389 
L 118.081519 51.949943 
L 121.09502 62.504651 
L 124.108521 63.07176 
L 127.122023 43.843684 
L 130.135524 36.488143 
L 133.149025 39.260086 
L 136.162527 30.241654 
L 139.176028 27.429454 
L 142.189529 36.89494 
L 145.203031 31.921244 
L 148.216532 28.164121 
L 151.230033 51.917564 
L 154.243535 54.703447 
L 157.257036 62.380442 
L 160.270538 68.074328 
L 163.284039 66.957926 
L 166.29754 71.350734 
L 169.311042 79.882005 
L 172.324543 84.505215 
L 175.338044 91.526061 
L 178.351546 93.693048 
L 181.365047 96.347736 
L 184.378548 93.011673 
L 187.39205 93.275519 
L 190.405551 93.748772 
L 193.419052 85.243997 
L 196.432554 89.995477 
L 199.446055 90.485412 
L 202.459556 87.12896 
L 205.473058 84.376914 
L 208.486559 84.151467 
L 211.50006 88.389747 
L 214.513562 88.494819 
L 217.527063 85.737947 
L 220.540565 86.268355 
L 223.554066 89.92264 
L 226.567567 89.617789 
L 229.581069 92.017381 
L 232.59457 93.52504 
L 235.608071 98.196681 
L 238.621573 102.738242 
L 241.635074 101.772388 
L 244.648575 98.55505 
L 247.662077 96.939567 
L 250.675578 99.991201 
L 253.689079 103.386911 
L 256.702581 104.647233 
L 259.716082 102.380267 
L 262.729583 106.082234 
L 265.743085 102.73873 
L 268.756586 100.384081 
L 271.770087 99.103234 
L 274.783589 104.279658 
L 277.79709 102.718512 
L 280.810592 103.730335 
L 283.824093 103.88746 
L 286.837594 104.497666 
L 289.851096 100.997646 
L 292.864597 101.137684 
L 295.878098 98.019911 
L 298.8916 99.578113 
L 301.905101 98.437508 
L 304.918602 94.069665 
L 307.932104 96.727873 
L 310.945605 93.221728 
L 313.959106 87.18764 
L 316.972608 76.130799 
L 319.986109 55.523013 
L 322.99961 59.081289 
L 326.013112 56.388067 
L 329.026613 66.600388 
L 332.040114 40.467129 
L 335.053616 23.318347 
L 338.067117 12.777912 
L 341.080619 23.121789 
L 344.09412 18.147966 
L 347.107621 19.970891 
L 350.121123 29.244977 
L 353.134624 44.95278 
L 356.148125 40.904953 
L 359.161627 54.322242 
L 362.175128 68.864869 
L 365.188629 50.359806 
L 368.202131 74.213395 
" style="fill:none;stroke:#2ca02c;stroke-linecap:square;stroke-width:1.5;"/>
   </g>
   <g id="line2d_16">
    <path clip-path="url(#pb1c28f9b0c)" d="M 63.838494 103.82943 
L 66.851996 106.612067 
L 69.865497 101.238223 
L 72.878998 102.684147 
L 75.8925 109.313059 
L 78.906001 107.130487 
L 81.919502 106.557887 
L 84.933004 103.950477 
L 87.946505 104.048259 
L 90.960006 102.224869 
L 93.973508 103.043197 
L 96.987009 99.793563 
L 100.000511 97.324032 
L 103.014012 97.385558 
L 106.027513 93.969741 
L 109.041015 74.606615 
L 112.054516 54.258314 
L 115.068017 44.693807 
L 118.081519 52.980413 
L 121.09502 71.713466 
L 124.108521 50.98564 
L 127.122023 43.818275 
L 130.135524 35.75818 
L 133.149025 20.840489 
L 136.162527 17.598305 
L 139.176028 30.472465 
L 142.189529 41.08674 
L 145.203031 29.320379 
L 148.216532 39.216315 
L 151.230033 77.749082 
L 154.243535 88.536223 
L 157.257036 93.894943 
L 160.270538 91.40899 
L 163.284039 99.039576 
L 166.29754 96.245499 
L 169.311042 97.758173 
L 172.324543 93.29531 
L 175.338044 93.886445 
L 178.351546 94.554475 
L 181.365047 96.033707 
L 184.378548 98.141171 
L 187.39205 96.530444 
L 190.405551 92.205648 
L 193.419052 90.586084 
L 196.432554 81.545632 
L 199.446055 79.870001 
L 202.459556 84.848531 
L 205.473058 79.767619 
L 208.486559 74.001813 
L 211.50006 74.743916 
L 214.513562 75.168174 
L 217.527063 68.786104 
L 220.540565 71.273697 
L 223.554066 76.570889 
L 226.567567 72.775198 
L 229.581069 69.023422 
L 232.59457 76.150468 
L 235.608071 87.440823 
L 238.621573 86.169693 
L 241.635074 89.301325 
L 244.648575 88.946228 
L 247.662077 95.030324 
L 250.675578 95.751031 
L 253.689079 97.504789 
L 256.702581 97.615419 
L 259.716082 98.55069 
L 262.729583 102.820058 
L 265.743085 99.072174 
L 268.756586 96.576338 
L 271.770087 101.759959 
L 274.783589 108.992215 
L 277.79709 111.614276 
L 280.810592 110.934291 
L 283.824093 102.816664 
L 286.837594 100.870392 
L 289.851096 105.917135 
L 292.864597 107.087412 
L 295.878098 104.568459 
L 298.8916 106.354712 
L 301.905101 106.232656 
L 304.918602 102.393282 
L 307.932104 93.976655 
L 310.945605 96.01063 
L 313.959106 85.840338 
L 316.972608 77.341862 
L 319.986109 87.037277 
L 322.99961 79.288611 
L 326.013112 81.401333 
L 329.026613 76.378295 
L 332.040114 52.26783 
L 335.053616 47.133507 
L 338.067117 27.884919 
L 341.080619 29.021225 
L 344.09412 33.187738 
L 347.107621 40.529593 
L 350.121123 39.051327 
L 353.134624 37.713171 
L 356.148125 38.36714 
L 359.161627 46.749803 
L 362.175128 57.921108 
L 365.188629 74.132369 
L 368.202131 86.443525 
" style="fill:none;stroke:#ff7f0e;stroke-linecap:square;stroke-width:1.5;"/>
   </g>
   <g id="line2d_17">
    <path clip-path="url(#pb1c28f9b0c)" d="M 63.838494 100.393697 
L 66.851996 105.293286 
L 69.865497 101.875118 
L 72.878998 105.15472 
L 75.8925 106.562142 
L 78.906001 101.483392 
L 81.919502 103.332412 
L 84.933004 102.352185 
L 87.946505 105.905463 
L 90.960006 104.327693 
L 93.973508 104.491889 
L 96.987009 104.635869 
L 100.000511 104.483468 
L 103.014012 99.428619 
L 106.027513 92.821561 
L 109.041015 90.12197 
L 112.054516 90.308707 
L 115.068017 90.619305 
L 118.081519 72.249146 
L 121.09502 65.244478 
L 124.108521 70.759379 
L 127.122023 52.011715 
L 130.135524 60.605664 
L 133.149025 61.588712 
L 136.162527 39.071467 
L 139.176028 43.239824 
L 142.189529 38.60164 
L 145.203031 32.979849 
L 148.216532 23.321766 
L 151.230033 18.463071 
L 154.243535 31.516021 
L 157.257036 34.369521 
L 160.270538 25.837627 
L 163.284039 34.654164 
L 166.29754 56.931429 
L 169.311042 66.492618 
L 172.324543 69.455888 
L 175.338044 80.025578 
L 178.351546 85.424102 
L 181.365047 87.81151 
L 184.378548 86.598666 
L 187.39205 85.282493 
L 190.405551 84.387447 
L 193.419052 75.458749 
L 196.432554 66.832634 
L 199.446055 63.286303 
L 202.459556 63.103801 
L 205.473058 59.471752 
L 208.486559 58.90399 
L 211.50006 57.109033 
L 214.513562 54.316557 
L 217.527063 56.912253 
L 220.540565 54.863271 
L 223.554066 56.337138 
L 226.567567 61.782594 
L 229.581069 68.705596 
L 232.59457 68.453352 
L 235.608071 71.210717 
L 238.621573 76.118031 
L 241.635074 78.331788 
L 244.648575 90.097369 
L 247.662077 95.605478 
L 250.675578 92.558991 
L 253.689079 95.974645 
L 256.702581 88.880955 
L 259.716082 95.313231 
L 262.729583 96.936447 
L 265.743085 104.230584 
L 268.756586 104.480562 
L 271.770087 100.983502 
L 274.783589 102.100396 
L 277.79709 103.134376 
L 280.810592 102.66343 
L 283.824093 102.987464 
L 286.837594 103.219612 
L 289.851096 102.778743 
L 292.864597 103.905608 
L 295.878098 106.423062 
L 298.8916 102.189539 
L 301.905101 103.426674 
L 304.918602 107.617803 
L 307.932104 102.57673 
L 310.945605 97.690616 
L 313.959106 100.07439 
L 316.972608 90.109482 
L 319.986109 91.109205 
L 322.99961 95.43638 
L 326.013112 91.760906 
L 329.026613 87.32775 
L 332.040114 59.319646 
L 335.053616 50.442156 
L 338.067117 47.28251 
L 341.080619 49.605957 
L 344.09412 43.277002 
L 347.107621 25.353749 
L 350.121123 19.826691 
L 353.134624 26.589908 
L 356.148125 25.088077 
L 359.161627 38.182776 
L 362.175128 39.429473 
L 365.188629 67.375635 
L 368.202131 59.621747 
" style="fill:none;stroke:#1f77b4;stroke-linecap:square;stroke-width:1.5;"/>
   </g>
   <g id="line2d_18"/>
   <g id="line2d_19"/>
   <g id="line2d_20"/>
   <g id="line2d_21"/>
   <g id="line2d_22"/>
   <g id="patch_3">
    <path d="M 48.620313 116.556094 
L 48.620313 7.836094 
" style="fill:none;stroke:#000000;stroke-linecap:square;stroke-linejoin:miter;stroke-width:0.8;"/>
   </g>
   <g id="patch_4">
    <path d="M 383.420313 116.556094 
L 383.420313 7.836094 
" style="fill:none;stroke:#000000;stroke-linecap:square;stroke-linejoin:miter;stroke-width:0.8;"/>
   </g>
   <g id="patch_5">
    <path d="M 48.620313 116.556094 
L 383.420312 116.556094 
" style="fill:none;stroke:#000000;stroke-linecap:square;stroke-linejoin:miter;stroke-width:0.8;"/>
   </g>
   <g id="patch_6">
    <path d="M 48.620313 7.836094 
L 383.420312 7.836094 
" style="fill:none;stroke:#000000;stroke-linecap:square;stroke-linejoin:miter;stroke-width:0.8;"/>
   </g>
   <g id="legend_1">
    <g id="patch_7">
     <path d="M 55.620313 103.904844 
L 116.23125 103.904844 
Q 118.23125 103.904844 118.23125 101.904844 
L 118.23125 14.836094 
Q 118.23125 12.836094 116.23125 12.836094 
L 55.620313 12.836094 
Q 53.620313 12.836094 53.620313 14.836094 
L 53.620313 101.904844 
Q 53.620313 103.904844 55.620313 103.904844 
z
" style="fill:#ffffff;opacity:0.8;stroke:#cccccc;stroke-linejoin:miter;"/>
    </g>
    <g id="text_15">
     <!-- Profile -->
     <g transform="translate(70.38125 24.434531)scale(0.1 -0.1)">
      <defs>
       <path d="M 19.671875 64.796875 
L 19.671875 37.40625 
L 32.078125 37.40625 
Q 38.96875 37.40625 42.71875 40.96875 
Q 46.484375 44.53125 46.484375 51.125 
Q 46.484375 57.671875 42.71875 61.234375 
Q 38.96875 64.796875 32.078125 64.796875 
z
M 9.8125 72.90625 
L 32.078125 72.90625 
Q 44.34375 72.90625 50.609375 67.359375 
Q 56.890625 61.8125 56.890625 51.125 
Q 56.890625 40.328125 50.609375 34.8125 
Q 44.34375 29.296875 32.078125 29.296875 
L 19.671875 29.296875 
L 19.671875 0 
L 9.8125 0 
z
" id="DejaVuSans-80"/>
       <path d="M 41.109375 46.296875 
Q 39.59375 47.171875 37.8125 47.578125 
Q 36.03125 48 33.890625 48 
Q 26.265625 48 22.1875 43.046875 
Q 18.109375 38.09375 18.109375 28.8125 
L 18.109375 0 
L 9.078125 0 
L 9.078125 54.6875 
L 18.109375 54.6875 
L 18.109375 46.1875 
Q 20.953125 51.171875 25.484375 53.578125 
Q 30.03125 56 36.53125 56 
Q 37.453125 56 38.578125 55.875 
Q 39.703125 55.765625 41.0625 55.515625 
z
" id="DejaVuSans-114"/>
       <path d="M 30.609375 48.390625 
Q 23.390625 48.390625 19.1875 42.75 
Q 14.984375 37.109375 14.984375 27.296875 
Q 14.984375 17.484375 19.15625 11.84375 
Q 23.34375 6.203125 30.609375 6.203125 
Q 37.796875 6.203125 41.984375 11.859375 
Q 46.1875 17.53125 46.1875 27.296875 
Q 46.1875 37.015625 41.984375 42.703125 
Q 37.796875 48.390625 30.609375 48.390625 
z
M 30.609375 56 
Q 42.328125 56 49.015625 48.375 
Q 55.71875 40.765625 55.71875 27.296875 
Q 55.71875 13.875 49.015625 6.21875 
Q 42.328125 -1.421875 30.609375 -1.421875 
Q 18.84375 -1.421875 12.171875 6.21875 
Q 5.515625 13.875 5.515625 27.296875 
Q 5.515625 40.765625 12.171875 48.375 
Q 18.84375 56 30.609375 56 
z
" id="DejaVuSans-111"/>
       <path d="M 37.109375 75.984375 
L 37.109375 68.5 
L 28.515625 68.5 
Q 23.6875 68.5 21.796875 66.546875 
Q 19.921875 64.59375 19.921875 59.515625 
L 19.921875 54.6875 
L 34.71875 54.6875 
L 34.71875 47.703125 
L 19.921875 47.703125 
L 19.921875 0 
L 10.890625 0 
L 10.890625 47.703125 
L 2.296875 47.703125 
L 2.296875 54.6875 
L 10.890625 54.6875 
L 10.890625 58.5 
Q 10.890625 67.625 15.140625 71.796875 
Q 19.390625 75.984375 28.609375 75.984375 
z
" id="DejaVuSans-102"/>
       <path d="M 9.421875 75.984375 
L 18.40625 75.984375 
L 18.40625 0 
L 9.421875 0 
z
" id="DejaVuSans-108"/>
      </defs>
      <use xlink:href="#DejaVuSans-80"/>
      <use x="58.552734" xlink:href="#DejaVuSans-114"/>
      <use x="97.416016" xlink:href="#DejaVuSans-111"/>
      <use x="158.597656" xlink:href="#DejaVuSans-102"/>
      <use x="193.802734" xlink:href="#DejaVuSans-105"/>
      <use x="221.585938" xlink:href="#DejaVuSans-108"/>
      <use x="249.369141" xlink:href="#DejaVuSans-101"/>
     </g>
    </g>
    <g id="line2d_23">
     <path d="M 57.620313 35.612656 
L 77.620313 35.612656 
" style="fill:none;stroke:#8c564b;stroke-linecap:square;stroke-width:1.5;"/>
    </g>
    <g id="line2d_24"/>
    <g id="text_16">
     <!-- v-v -->
     <g transform="translate(85.620313 39.112656)scale(0.1 -0.1)">
      <defs>
       <path d="M 2.984375 54.6875 
L 12.5 54.6875 
L 29.59375 8.796875 
L 46.6875 54.6875 
L 56.203125 54.6875 
L 35.6875 0 
L 23.484375 0 
z
" id="DejaVuSans-118"/>
       <path d="M 4.890625 31.390625 
L 31.203125 31.390625 
L 31.203125 23.390625 
L 4.890625 23.390625 
z
" id="DejaVuSans-45"/>
      </defs>
      <use xlink:href="#DejaVuSans-118"/>
      <use x="56.554688" xlink:href="#DejaVuSans-45"/>
      <use x="90.013672" xlink:href="#DejaVuSans-118"/>
     </g>
    </g>
    <g id="line2d_25">
     <path d="M 57.620313 50.290781 
L 77.620313 50.290781 
" style="fill:none;stroke:#9467bd;stroke-linecap:square;stroke-width:1.5;"/>
    </g>
    <g id="line2d_26"/>
    <g id="text_17">
     <!-- v-S -->
     <g transform="translate(85.620313 53.790781)scale(0.1 -0.1)">
      <defs>
       <path d="M 53.515625 70.515625 
L 53.515625 60.890625 
Q 47.90625 63.578125 42.921875 64.890625 
Q 37.9375 66.21875 33.296875 66.21875 
Q 25.25 66.21875 20.875 63.09375 
Q 16.5 59.96875 16.5 54.203125 
Q 16.5 49.359375 19.40625 46.890625 
Q 22.3125 44.4375 30.421875 42.921875 
L 36.375 41.703125 
Q 47.40625 39.59375 52.65625 34.296875 
Q 57.90625 29 57.90625 20.125 
Q 57.90625 9.515625 50.796875 4.046875 
Q 43.703125 -1.421875 29.984375 -1.421875 
Q 24.8125 -1.421875 18.96875 -0.25 
Q 13.140625 0.921875 6.890625 3.21875 
L 6.890625 13.375 
Q 12.890625 10.015625 18.65625 8.296875 
Q 24.421875 6.59375 29.984375 6.59375 
Q 38.421875 6.59375 43.015625 9.90625 
Q 47.609375 13.234375 47.609375 19.390625 
Q 47.609375 24.75 44.3125 27.78125 
Q 41.015625 30.8125 33.5 32.328125 
L 27.484375 33.5 
Q 16.453125 35.6875 11.515625 40.375 
Q 6.59375 45.0625 6.59375 53.421875 
Q 6.59375 63.09375 13.40625 68.65625 
Q 20.21875 74.21875 32.171875 74.21875 
Q 37.3125 74.21875 42.625 73.28125 
Q 47.953125 72.359375 53.515625 70.515625 
z
" id="DejaVuSans-83"/>
      </defs>
      <use xlink:href="#DejaVuSans-118"/>
      <use x="56.554688" xlink:href="#DejaVuSans-45"/>
      <use x="92.638672" xlink:href="#DejaVuSans-83"/>
     </g>
    </g>
    <g id="line2d_27">
     <path d="M 57.620313 64.968906 
L 77.620313 64.968906 
" style="fill:none;stroke:#2ca02c;stroke-linecap:square;stroke-width:1.5;"/>
    </g>
    <g id="line2d_28"/>
    <g id="text_18">
     <!-- S-S -->
     <g transform="translate(85.620313 68.468906)scale(0.1 -0.1)">
      <use xlink:href="#DejaVuSans-83"/>
      <use x="63.476562" xlink:href="#DejaVuSans-45"/>
      <use x="99.560547" xlink:href="#DejaVuSans-83"/>
     </g>
    </g>
    <g id="line2d_29">
     <path d="M 57.620313 79.647031 
L 77.620313 79.647031 
" style="fill:none;stroke:#ff7f0e;stroke-linecap:square;stroke-width:1.5;"/>
    </g>
    <g id="line2d_30"/>
    <g id="text_19">
     <!-- Se-S -->
     <g transform="translate(85.620313 83.147031)scale(0.1 -0.1)">
      <use xlink:href="#DejaVuSans-83"/>
      <use x="63.476562" xlink:href="#DejaVuSans-101"/>
      <use x="125" xlink:href="#DejaVuSans-45"/>
      <use x="161.083984" xlink:href="#DejaVuSans-83"/>
     </g>
    </g>
    <g id="line2d_31">
     <path d="M 57.620313 94.325156 
L 77.620313 94.325156 
" style="fill:none;stroke:#1f77b4;stroke-linecap:square;stroke-width:1.5;"/>
    </g>
    <g id="line2d_32"/>
    <g id="text_20">
     <!-- Se-Se -->
     <g transform="translate(85.620313 97.825156)scale(0.1 -0.1)">
      <use xlink:href="#DejaVuSans-83"/>
      <use x="63.476562" xlink:href="#DejaVuSans-101"/>
      <use x="125" xlink:href="#DejaVuSans-45"/>
      <use x="161.083984" xlink:href="#DejaVuSans-83"/>
      <use x="224.560547" xlink:href="#DejaVuSans-101"/>
     </g>
    </g>
   </g>
  </g>
 </g>
 <defs>
  <clipPath id="pb1c28f9b0c">
   <rect height="108.72" width="334.8" x="48.620313" y="7.836094"/>
  </clipPath>
 </defs>
</svg>
